<?xml version="1.0" encoding="utf-8"?>
<svg id="logo" xmlns="http://www.w3.org/2000/svg" xmlns:xlink="http://www.w3.org/1999/xlink" version="1.1" viewBox="0 0 124.4 43.7" enable-background="new 0 0 124.4 43.7" xml:space="preserve">
    <path fill="#181818" d="M27.9.8V25.7c0,6.9-3.9,10-9.7,10s-9.7-3-9.7-10V.8H0V26.1C0,37.7,7.4,43.7,18.2,43.7s18.2-5.9,18.2-17.6V.8Z"/>
    <path fill="#181818" d="M76.5.8h-33V8.5H65.3L43.5,36.4V43h33V35.3H54.6L76.5,7.4Z"/>
    <path fill="#181818" d="M88.8,21.9a13.73,13.73,0,0,0,2.5,7.9l-5.2,6.5a21.56,21.56,0,0,1-5.4-14.4,21.85,21.85,0,0,1,32-19.4L107.5,9a13.48,13.48,0,0,0-5-.9A13.81,13.81,0,0,0,88.8,21.9Z"/>
    <path fill="#181818" d="M124.4,21.9a21.81,21.81,0,0,1-21.9,21.8,21.58,21.58,0,0,1-10.1-2.5l5.1-6.6a13.48,13.48,0,0,0,5,.9,13.78,13.78,0,0,0,11.3-21.7l5.1-6.6A22.83,22.83,0,0,1,124.4,21.9Z"/>
</svg>
