<svg xmlns="http://www.w3.org/2000/svg" viewBox="0 0 96 96">
    <path d="M76.79,38A16.53,16.53,0,0,0,60.46,23.56a16,16,0,0,0-12,5.86,15.91,15.91,0,0,0-12-5.86h0A16.5,16.5,0,0,0,20.15,37.91a9.88,9.88,0,0,0-.24,2.17c0,7.54,4.53,15.37,13.84,23.93A95.51,95.51,0,0,0,47.16,74.26l1.29.81,1.3-.81A95.49,95.49,0,0,0,63.17,64C72.48,55.45,77,47.62,77,40.08A10.22,10.22,0,0,0,76.79,38ZM72,40.07c0,7.85-7.66,16.06-12.22,20.25A77.62,77.62,0,0,1,48.46,69a77.26,77.26,0,0,1-11.34-8.71c-4.56-4.2-12.21-12.4-12.21-20.24A4.89,4.89,0,0,1,25,38.84l0-.2A11.46,11.46,0,0,1,36.43,28.56h0a11.45,11.45,0,0,1,9.86,5.67l2.16,3.64,2.15-3.65a11.44,11.44,0,0,1,21.24,4.49l0,.15A6.21,6.21,0,0,1,72,40.07Z"/>
</svg>